# xmcd
#
# Track frame offsets:
#	150
#	16845
#	40058
#	55646
#	68524
#	92072
#	112787
#	130267
#	145586
#	164397
#	183382
#	201818
#	224361
#	240169
#	257252
#
# Disc length: 3736 seconds
#
# Revision: 1
# Processed by: cddbd v1.5.2PL0 Copyright (c) Steve Scherf et al.
# Submitted via: audiograbber 1.83.01
#
DISCID=b70e960f
DTITLE=Various Artist - SC8826
DYEAR=1900
DGENRE=country
TTITLE0=sarah brightman - love changes everything
TTITLE1=dixie chicks - travelin' soldier
TTITLE2=clint black - iraq and roll
TTITLE3=casey abrams - simple life
TTITLE4=lynard skynard - red, white and blue
TTITLE5=warren brothers - hey mr. president
TTITLE6=brad paisley - celebrity
TTITLE7=george strait - tell me something bad about tulsa
TTITLE8=brooks and dunn - red dirt road
TTITLE9=brad martin - one of those days
TTITLE10=steven curtis chapman - long way home
TTITLE11=craig morgan - almost home
TTITLE12=josh groban - you're still you
TTITLE13=trace adkins - love me like there's no tomorrow
TTITLE14=joe nichols - she only smokes when she drinks
EXTD=
EXTT0=
EXTT1=
EXTT2=
EXTT3=
EXTT4=
EXTT5=
EXTT6=
EXTT7=
EXTT8=
EXTT9=
EXTT10=
EXTT11=
EXTT12=
EXTT13=
EXTT14=
PLAYORDER=
